<?xml version="1.0" standalone="no"?><svg xmlns="http://www.w3.org/2000/svg" viewBox="0 0 1440 320"><path fill="#ff5500" fill-opacity="1" d="M0,288L0,96L53.3,96L53.3,256L106.7,256L106.7,320L160,320L160,224L213.3,224L213.3,224L266.7,224L266.7,96L320,96L320,160L373.3,160L373.3,320L426.7,320L426.7,192L480,192L480,224L533.3,224L533.3,320L586.7,320L586.7,160L640,160L640,128L693.3,128L693.3,288L746.7,288L746.7,224L800,224L800,96L853.3,96L853.3,192L906.7,192L906.7,256L960,256L960,224L1013.3,224L1013.3,96L1066.7,96L1066.7,96L1120,96L1120,64L1173.3,64L1173.3,288L1226.7,288L1226.7,32L1280,32L1280,288L1333.3,288L1333.3,96L1386.7,96L1386.7,256L1440,256L1440,320L1386.7,320L1386.7,320L1333.3,320L1333.3,320L1280,320L1280,320L1226.7,320L1226.7,320L1173.3,320L1173.3,320L1120,320L1120,320L1066.7,320L1066.7,320L1013.3,320L1013.3,320L960,320L960,320L906.7,320L906.7,320L853.3,320L853.3,320L800,320L800,320L746.7,320L746.7,320L693.3,320L693.3,320L640,320L640,320L586.7,320L586.7,320L533.3,320L533.3,320L480,320L480,320L426.7,320L426.7,320L373.3,320L373.3,320L320,320L320,320L266.7,320L266.7,320L213.3,320L213.3,320L160,320L160,320L106.7,320L106.7,320L53.3,320L53.3,320L0,320L0,320Z"></path></svg>